<svg width="1244" height="481" viewBox="0 0 1244 481" fill="none" xmlns="http://www.w3.org/2000/svg">
<g filter="url(#filter0_d_5_11)">
<mask id="mask0_5_11" style="mask-type:luminance" maskUnits="userSpaceOnUse" x="709" y="0" width="104" height="104">
<path d="M709 0H813V104H709V0Z" fill="white"/>
</mask>
<g mask="url(#mask0_5_11)">
<path d="M771.702 57.9747C778.891 53.2803 791.268 52.6566 813 52C791.268 51.327 778.891 50.7197 771.702 46.0253C773.852 41.1831 778.465 35.5859 785.556 27.4444C777.414 34.5354 771.817 39.1477 766.991 41.298C762.28 34.1086 761.673 21.7323 761 0C760.343 21.7323 759.72 34.1086 755.025 41.298C750.199 39.1477 744.602 34.5354 736.444 27.4444C743.535 35.5859 748.164 41.1831 750.298 46.0253C743.109 50.7197 730.732 51.327 709 52C730.732 52.6566 743.109 53.2803 750.298 57.9747C748.164 62.8005 743.535 68.4141 736.444 76.5556C744.602 69.4646 750.199 64.8523 755.025 62.702C759.72 69.8914 760.343 82.2677 761 104C761.673 82.2677 762.28 69.8914 766.991 62.702C771.817 64.8523 777.414 69.4646 785.556 76.5556C778.465 68.4141 773.852 62.8005 771.702 57.9747Z" fill="white"/>
</g>
</g>
<g filter="url(#filter1_d_5_11)">
<path d="M71.032 105.845C78.088 105.845 94.846 107.021 94.846 117.311C94.846 127.601 82.204 130.247 82.204 145.535C82.204 158.177 92.494 168.173 104.842 168.173C117.484 168.173 127.774 158.177 127.774 145.535C127.774 127.013 101.02 104.081 71.032 104.081C33.988 104.081 4 137.303 4 178.463C4 219.623 33.988 252.845 71.032 252.845C94.846 252.845 116.014 239.027 127.774 217.859L126.304 216.977C118.072 226.679 107.488 232.559 96.022 232.559C69.562 232.559 48.1 201.101 48.1 162.293C48.1 131.129 63.388 105.845 71.032 105.845Z" fill="white"/>
<path d="M212.577 104.081C175.533 104.081 145.545 137.303 145.545 178.463C145.545 219.623 175.533 252.845 212.577 252.845C249.621 252.845 279.609 219.623 279.609 178.463C279.609 137.303 249.621 104.081 212.577 104.081ZM212.577 251.081C197.877 251.081 189.645 226.679 189.645 178.463C189.645 129.953 197.877 105.845 212.577 105.845C227.277 105.845 235.215 129.953 235.215 178.463C235.215 226.679 227.277 251.081 212.577 251.081Z" fill="white"/>
<path d="M430.833 235.205V144.359C430.833 94.6732 380.559 99.6712 353.511 113.195V112.019C353.511 109.079 351.453 107.021 348.513 107.021C348.219 107.021 347.925 107.021 347.631 107.021L297.357 114.371V116.135C304.119 117.311 309.411 123.191 309.411 130.541V235.205C309.411 242.261 304.119 248.435 297.357 249.611V251.375H365.565V249.611C358.803 248.435 353.511 242.261 353.511 235.205V115.253C358.215 112.901 369.093 108.491 382.029 108.491C393.789 108.491 402.021 112.313 402.021 118.781C402.021 129.659 386.733 133.481 386.733 148.475V235.205C386.733 242.261 381.441 248.435 374.679 249.611V251.375H424.659H442.887V249.611C436.125 248.435 430.833 242.261 430.833 235.205Z" fill="white"/>
<path d="M571.342 211.685C567.814 171.407 497.842 154.061 500.194 122.897C501.076 110.549 509.308 104.963 519.598 106.433C548.116 110.255 556.642 138.185 560.17 155.825C560.758 155.825 561.64 155.825 561.64 155.825V108.197H560.17C558.7 109.667 556.054 111.137 552.82 111.431C540.178 112.313 531.358 104.081 510.19 104.081C488.434 104.081 460.504 114.959 460.504 138.479C460.504 179.639 534.886 202.571 534.886 231.971C534.886 242.555 526.36 251.081 515.776 251.081C509.896 251.081 506.956 250.787 503.134 250.199C497.254 249.317 492.256 244.907 492.256 240.497C492.256 232.853 506.074 230.501 506.074 214.625C506.074 202.277 495.784 191.987 483.142 191.987C470.794 191.987 460.504 202.277 460.504 214.625C460.504 236.381 485.788 252.845 515.776 252.845C546.352 252.845 573.106 234.911 571.342 211.685Z" fill="white"/>
<path d="M656.448 105.845C663.504 105.845 680.262 107.021 680.262 117.311C680.262 127.601 667.62 130.247 667.62 145.535C667.62 158.177 677.91 168.173 690.258 168.173C702.9 168.173 713.19 158.177 713.19 145.535C713.19 127.013 686.436 104.081 656.448 104.081C619.404 104.081 589.416 137.303 589.416 178.463C589.416 219.623 619.404 252.845 656.448 252.845C680.262 252.845 701.43 239.027 713.19 217.859L711.72 216.977C703.488 226.679 692.904 232.559 681.438 232.559C654.978 232.559 633.516 201.101 633.516 162.293C633.516 131.129 648.804 105.845 656.448 105.845Z" fill="white"/>
<path d="M740.075 235.205C740.075 242.261 734.783 248.435 728.021 249.611V251.375H796.229V249.611C789.467 248.435 784.175 242.261 784.175 235.205V112.019C784.175 109.079 782.117 107.021 779.177 107.021C778.883 107.021 778.589 107.021 778.295 107.021L728.021 114.371V116.135C734.783 117.311 740.075 123.191 740.075 130.541V235.205Z" fill="white"/>
<path d="M880.968 104.081C843.924 104.081 813.936 137.303 813.936 178.463C813.936 219.623 843.924 252.845 880.968 252.845C918.012 252.845 948 219.623 948 178.463C948 137.303 918.012 104.081 880.968 104.081ZM880.968 251.081C866.268 251.081 858.036 226.679 858.036 178.463C858.036 129.953 866.268 105.845 880.968 105.845C895.668 105.845 903.606 129.953 903.606 178.463C903.606 226.679 895.668 251.081 880.968 251.081Z" fill="white"/>
<path d="M1099.22 229.325V112.019C1099.22 109.079 1097.17 107.021 1094.23 107.021H1093.34L1043.07 114.371V116.135C1049.83 117.311 1055.12 123.191 1055.12 130.541V241.673C1053.36 242.555 1041.31 248.435 1026.61 248.435C1015.14 248.435 1006.61 244.319 1006.61 238.145C1006.61 227.267 1021.9 223.445 1021.9 208.451V112.019C1021.9 109.079 1019.84 107.021 1016.9 107.021H1016.02L965.747 114.371V116.135C972.51 117.311 977.802 123.191 977.802 130.541V212.567C977.802 262.253 1028.08 257.255 1055.12 243.437V247.847C1055.12 250.493 1057.48 252.845 1060.12 252.845H1061L1111.28 245.495V243.731C1104.52 242.555 1099.22 236.381 1099.22 229.325Z" fill="white"/>
<path d="M1239.73 211.685C1236.2 171.407 1166.23 154.061 1168.58 122.897C1169.47 110.549 1177.7 104.963 1187.99 106.433C1216.51 110.255 1225.03 138.185 1228.56 155.825C1229.15 155.825 1230.03 155.825 1230.03 155.825V108.197H1228.56C1227.09 109.667 1224.44 111.137 1221.21 111.431C1208.57 112.313 1199.75 104.081 1178.58 104.081C1156.82 104.081 1128.89 114.959 1128.89 138.479C1128.89 179.639 1203.28 202.571 1203.28 231.971C1203.28 242.555 1194.75 251.081 1184.17 251.081C1178.29 251.081 1175.35 250.787 1171.52 250.199C1165.64 249.317 1160.65 244.907 1160.65 240.497C1160.65 232.853 1174.46 230.501 1174.46 214.625C1174.46 202.277 1164.17 191.987 1151.53 191.987C1139.18 191.987 1128.89 202.277 1128.89 214.625C1128.89 236.381 1154.18 252.845 1184.17 252.845C1214.74 252.845 1241.5 234.911 1239.73 211.685Z" fill="white"/>
</g>
<g filter="url(#filter2_d_5_11)">
<path d="M498.6 290H431V291.2C437.6 291.2 443 296.6 443 303.2V416.8C443 423.4 437.6 428.8 431 428.8V430H498.6C533.2 430 561.6 398.6 561.6 360C561.6 321.4 533.2 290 498.6 290ZM484.4 428.8H478.2V291.2H484.4C506.4 291.2 524.2 322 524.2 360C524.2 398 506.4 428.8 484.4 428.8ZM669.609 419.6C651.409 367.6 648.609 359 624.609 290L582.609 406C578.409 417.2 567.209 427.2 555.609 428.8V430H604.409V428.8C593.209 428.8 584.209 420 584.209 408.8C584.209 406.4 584.609 404.2 585.209 402.2L586.609 398.6H625.009L630.809 415.4C633.009 422 627.609 428.8 621.009 428.8V430H682.609V428.8C676.609 428.8 671.409 425 669.609 419.6ZM587.009 397.4L606.209 344.4C615.209 370.6 618.209 379 624.609 397.4H587.009ZM747.758 290C712.958 290 684.758 321.4 684.758 360C684.758 398.6 712.958 430 747.758 430C782.558 430 810.758 398.6 810.758 360C810.758 321.4 782.558 290 747.758 290ZM747.758 428.8C730.958 428.8 721.958 405.8 721.958 360C721.958 314.2 730.958 291.2 747.758 291.2C764.558 291.2 773.558 314.2 773.558 360C773.558 405.8 764.558 428.8 747.758 428.8Z" fill="white"/>
</g>
<defs>
<filter id="filter0_d_5_11" x="705" y="0" width="112" height="112" filterUnits="userSpaceOnUse" color-interpolation-filters="sRGB">
<feFlood flood-opacity="0" result="BackgroundImageFix"/>
<feColorMatrix in="SourceAlpha" type="matrix" values="0 0 0 0 0 0 0 0 0 0 0 0 0 0 0 0 0 0 127 0" result="hardAlpha"/>
<feOffset dy="4"/>
<feGaussianBlur stdDeviation="2"/>
<feComposite in2="hardAlpha" operator="out"/>
<feColorMatrix type="matrix" values="0 0 0 0 0 0 0 0 0 0 0 0 0 0 0 0 0 0 0.7 0"/>
<feBlend mode="normal" in2="BackgroundImageFix" result="effect1_dropShadow_5_11"/>
<feBlend mode="normal" in="SourceGraphic" in2="effect1_dropShadow_5_11" result="shape"/>
</filter>
<filter id="filter1_d_5_11" x="0" y="104" width="1243.81" height="156.859" filterUnits="userSpaceOnUse" color-interpolation-filters="sRGB">
<feFlood flood-opacity="0" result="BackgroundImageFix"/>
<feColorMatrix in="SourceAlpha" type="matrix" values="0 0 0 0 0 0 0 0 0 0 0 0 0 0 0 0 0 0 127 0" result="hardAlpha"/>
<feOffset dy="4"/>
<feGaussianBlur stdDeviation="2"/>
<feComposite in2="hardAlpha" operator="out"/>
<feColorMatrix type="matrix" values="0 0 0 0 0 0 0 0 0 0 0 0 0 0 0 0 0 0 0.7 0"/>
<feBlend mode="normal" in2="BackgroundImageFix" result="effect1_dropShadow_5_11"/>
<feBlend mode="normal" in="SourceGraphic" in2="effect1_dropShadow_5_11" result="shape"/>
</filter>
<filter id="filter2_d_5_11" x="427" y="290" width="387.758" height="148" filterUnits="userSpaceOnUse" color-interpolation-filters="sRGB">
<feFlood flood-opacity="0" result="BackgroundImageFix"/>
<feColorMatrix in="SourceAlpha" type="matrix" values="0 0 0 0 0 0 0 0 0 0 0 0 0 0 0 0 0 0 127 0" result="hardAlpha"/>
<feOffset dy="4"/>
<feGaussianBlur stdDeviation="2"/>
<feComposite in2="hardAlpha" operator="out"/>
<feColorMatrix type="matrix" values="0 0 0 0 0 0 0 0 0 0 0 0 0 0 0 0 0 0 0.7 0"/>
<feBlend mode="normal" in2="BackgroundImageFix" result="effect1_dropShadow_5_11"/>
<feBlend mode="normal" in="SourceGraphic" in2="effect1_dropShadow_5_11" result="shape"/>
</filter>
</defs>
</svg>
